<svg xmlns="http://www.w3.org/2000/svg" viewBox="0 0 3965.22 2741.16"><defs><style>.cls-1{fill:#e0ddfe;}.cls-1,.cls-2,.cls-3,.cls-4,.cls-5{fill-rule:evenodd;}.cls-2{fill:#b0a8f4;}.cls-3{fill:#534fa2;}.cls-4{fill:#fefefe;}.cls-5{fill:#fcb3c1;}</style></defs><g id="Layer_2" data-name="Layer 2"><g id="Layer_1-2" data-name="Layer 1"><path class="cls-1" d="M2132.73,733.68c152.4,108.74,359.56,288,601.83,349.81,214.55,54.8,435.61,89,676.19,57,270.21-27.49,418.36,74,491.64,208.2,95.41,174.79,90.11,445.22-71.16,780.16-211.17,383.87-552.28,583.63-893.29,609.46-373.7,28.28-902.53-155.66-1297.36-620.78-317.42-367.5-364.34-882.67-220-1202.21C1482.19,778.8,1572.26,668.15,1698.26,629,1849.57,581.92,2010,646.13,2132.73,733.68Z"/><path class="cls-2" d="M1505.31,852.79c187.14-5.7,460.49,11.53,690.79-85.89,204-86.26,400.57-192.88,572.74-363.94,198.44-185.44,377.79-194.37,517.37-131.88,181.75,81.36,341.24,299.83,415.63,664.06,64.3,433.36-86.29,798.87-342.08,1025.83-280.34,248.75-812.62,422.48-1408.44,291.25-475.12-100.34-824.32-482-902.91-823.69-33.58-146-28.89-288.62,47.7-396.08C1188.06,903.42,1354.65,857.37,1505.31,852.79Z"/><path class="cls-2" d="M2588,115.56a96.91,96.91,0,0,1,21.64,10l21.08-13.89,27.69,30.46-13.61,21.17a97,97,0,0,1,8.71,23.41l22.6,4.66-2,41.11-22.33,4.86a97.11,97.11,0,0,1-11,24l12.64,19.18L2623,308.24l-19.52-12.55a97.72,97.72,0,0,1-25,9l-7.05,22.07-41.11-2-2.46-22.75A97.69,97.69,0,0,1,2504,290.51l-20.21,10.41-27.68-30.46,14.38-17.85a96.74,96.74,0,0,1-8.26-23.77l-23.81-7.61,2-41.11,25-2.7a97.41,97.41,0,0,1,10.41-21.57l-11.51-22.31,30.48-27.68L2514,121.4a97.35,97.35,0,0,1,22.63-8.13l5-24.27,41.11,2,5.34,24.58Zm-339.77,84.59a176.11,176.11,0,0,1,39.2,18.11l38.14-25.14,50.1,55.13-24.62,38.32A176,176,0,0,1,2366.87,329l40.86,8.4-3.56,74.42-40.39,8.78a176.81,176.81,0,0,1-20,43.51l22.87,34.72-55.12,50.1-35.34-22.7A176.22,176.22,0,0,1,2231,542.5l-12.77,40-74.43-3.54-4.42-41.17a176.41,176.41,0,0,1-43.3-20.94l-36.59,18.87-50.11-55.13,26-32.32a176.53,176.53,0,0,1-15-43l-43.08-13.78,3.55-74.4,45.2-4.87A176.43,176.43,0,0,1,2045,273.06l-20.8-40.36,55.13-50.11,34.91,28.11a176.83,176.83,0,0,1,40.95-14.7l9-43.91,74.43,3.54,9.67,44.52Zm-50.48,91.36a77.61,77.61,0,1,0,73.83,81.22,77.6,77.6,0,0,0-73.83-81.22ZM2560.15,166a42.87,42.87,0,1,0,40.79,44.86A42.88,42.88,0,0,0,2560.15,166Z"/><path class="cls-3" d="M2026.34,1173c-8.3,0-16.74-2.52-23.77-4.28-3.88-1-6.92-1.94-10.72-3-43.49-12.53-93.06-39.43-134.73-47.8-12.4-2.49-18.85-2.55-30.42-4.25-29.47-1.75-56.13-5-84-7.76-31.34-3.08-60.56-5.17-92.16-5.79-83.2,0-137.52,12.46-178.87,81.17l-8.42,15c-10.28,20.55-16.82,37.16-20.94,60.62-1.14,6.47-3.73,13-3.87,19.59-18.67,0-37.18,4.33-40.35,23.88-1.5,9.1-2.91,18.3-4.11,28-6.17,50.64-5.69,60.1-19.28,109.2-8.34,30.21-22.42,64.9-33.71,95.27-6,16.21-11.18,30.79-20,45.88-13.78,23.6-30.3,41.91-39.91,72.55s-19.7,74.72-22.6,88.68c-5.48,26.38-11.8,52.46-17.6,78.76-25.24,114.68-36,222.28-30.13,339.08,2.12,41.78,6.29,94,32.17,128.38,15.74,20.86,40,34,66.9,42.6,64.9,20.83,174.55,26.79,238.79,7.73,28.69-8.54,43.48-12,73.34-25.08,4-1.74,13.3-7,17.53-6.33,7.92,1.24,158.74-.27,171.12-.27q644.92,0,1289.9-2c2.9,0,22,11.25,24.52,12.72a133.47,133.47,0,0,0,12.73,6.13,264.47,264.47,0,0,0,41.9,14.19,320,320,0,0,0,37.44,6.59c32,4.11,63.45,6.74,95.52,10.33,34.13,3.82,57.46,5.86,91.48-3.86,25.12-7.17,45.86-18.56,68.13-31.79a148.8,148.8,0,0,0,28.13-21.83c20.63-21.54,41.35-46.67,52.87-74.41,13.07-31.43,18.85-53.79,10-89.18-6.27-25.16-7.39-45.62-11.41-70.58-6.41-39.9-19.24-81.57-28.88-120.1-11.29-45.18-12.45-92-13.39-138.49-.83-40.31,3-129.64-12-164.93-8.76-20.48-27.73-39.21-38.29-60.13-17.29-34.33-28.5-89.38-36.2-133.36-7.5-42.79-8.11-75.37-13.2-114.47-2.82-21.7-9.72-34.29-33.52-34.29-2.84,0-3,.51-5.61.51,0-122.39-49.5-208.71-183-210-55.11,2.17-93.2,7.69-149.4,17.81-38.78,7-86.92,10.61-118.07,22.66-16.72,6.46-50.94,22.28-68.14,31.79-13.71,7.59-28.27,13.44-40.69,20-141.58-622.19-706.65-558.7-785.15-5.1Zm-138.17,129.5c1.19.87,3.61,7,4.59,9.19,1.46,3.27,2.76,6.14,4.22,9.53,10.31,23.83,2.92,37.19,2.92,63.36-9.32-6.23-39.91-28.38-51.49-31.1.61-2.32,37.84-28,39.76-51Zm1055.88,21.92-3.11-7.33c-1.23-2.92,9.78-12.49,12.42-15,14.54-14.67,31.58-22.8,50.86-29.19-4.78,20.53,8,15.14-33.48,35.87-7.12,3.94-15.89,8.17-22.23,12.94a13.51,13.51,0,0,1-4.46,2.69Zm-128.88-62.17c-3.58,7.72-13.19,18-9.42,37.84a113,113,0,0,0,8.48,26.16c9.37,20.35,23.44,36.75,37.33,54,18.81,23.94,52.8,52,76.18,74.73,15.22,11.64,31.45,5.93,38.18-11.79,1.58-4.18,1.6-5.57,1.6-11.17a23,23,0,0,0,12.24-4.06c9.24-6.6,11.3-19.33,10.12-30.53-.26-2.42-1-4.83-1-7.71,15.06,0,57.37-18.79,81.75-30.61,30-14.56,83.77-46.38,110-46.38.3,3.7,2.28,6.39,2.55,9.68-24.59,8.17-19.75,17.34-16.68,31.17,7.15,32.12,10.28,46.35,14.87,79.76,3.83,28,4.87,66,4.87,94.55,0,32.94-3.27,57.22-12.06,87.36-4,13.7-6.8,25.63-6.8,43.15-1.24-.9-1.44-2.34-2.12-4L3159.2,1642c-4.51-7.84-8.82-12.43-15-18.64-21.14-19.71-60.49-47.6-92.77-67.58-21.93-13.56-44.56-22.79-65.65-35.55-47-27.68-89.61-56.9-137.05-84.22-22-11-26.72-15.31-35-38.94-4.11-11.75-10-22.4-15.5-33.45-5.19-10.48-37.54-65.45-54-69.85a146.74,146.74,0,0,1,6.81-19.24c.5-1.15.72-1.44,1.32-1.44,19.35-.08,35.51,3.13,54.93-6.51,3.39-1.69,4.91-2.79,7.91-4.4ZM2968,2295.14c.41-1.78,1.36-3.19,2.11-5l6-15.38c6.22-15.67,11.74-40.21,15-57.39l1.83-13c26.58,30.4,55.15,63.1,88.52,85.35,1.75,1.17,5.87,3.59,6.83,4.89h-91.27c-11.25,0-19.07.51-29.06.51Zm-1314.38,2c49.12-21.13,128.93-69.15,189.67-121.85,11.89,3.16,53.14,106.55,56.59,121.34-83.77,0-163.26.51-246.26.51Zm-42.83-544.52c-.69-15.8-1.52-30.57-1.52-46.39,0-39.56-3-75.66-5.12-114.7-.75-13.65-1.51-18.18-1.51-33.15,0-11.13,1.44-35.9,2.63-47.33,4.51-43.53,12.45-88.78,32.92-127.55,5.51-10.46,16-21.54,19.42-30.09a20.29,20.29,0,0,0,1.62-7.14l18.17,5.8c5.28,1.77,41.41,17.77,46.28,21a32.9,32.9,0,0,0,3.88,2.25c0,5.79,2.17,10.07,4.42,13.94,8,13.79,20.85,4,25.49,6.06a84,84,0,0,1,9.75,5.6c38.92,26.88,72.61,58.12,107.81,89.48,2.52,2.42,2.54,5.29,3.94,11.35-8.82,2.06-32.19,7.82-48.79,27.69-26.3,31.47-35,32.11-73,44.77-12.75,4.27-21.69,9.31-32,17-17.24,12.88-23.74,29.58-32.83,48.23-14.32,29.06-32.29,52.88-51.79,77.71l-29.8,35.46Zm357.41-480.26,11.9,4.39c8.92,2.89,32.42,8.85,41.13,8.85l-1.93,9.3c-9.89,49-8,111-3.17,161-2.48.58-5.55,2.22-8.11,3.13s-5.51,2-8.43,2.78c-21.7,6.16-41.86,10.73-56.89,10.42.56-2.38,6.17-11.8,7.65-14.78,16.7-33.64,21.19-45.91,26.74-85.45,3.89-27.79,7.2-47.24.94-71.48C1976.27,1293.66,1971.51,1279.26,1968.22,1272.4Z"/><path class="cls-4" d="M2599.91,1143.91c2,0,4.4,1.17,6.8,2.76,6.88,4.57,15.74,13.55,22.2,19.23,69,55.89,150.38,42.08,223.54,1.12,13.87-7.76,55.82-28.2,71.54-33.49,33.47-11.29,79.19-15,115.54-22.12,48.74-9.53,102.17-19.26,148.44-17.72,99.13,3.29,175.69,50,175.69,202.67l-89.08,9.31c-11.1,1.4-72.59,8.53-84.27,14.14-3.08-6.44-5.59-22.86-5.59-32.63a155.64,155.64,0,0,1,1.94-21l3.65-19.81a3.93,3.93,0,0,0-3.56-3.56c-6.67,0-8.62,27.47-9.47,33.34a85.37,85.37,0,0,0,.65,24.43c1.19,6.51-.73,3.74-9.64,5.86-30.9,7.31-74.69,32-103.73,46.67a484.65,484.65,0,0,1-61.16,25.51c-4.78,1.59-9.87,3.48-15,3.95l-1.2.05c-4.54-11.73-29.69-34.37-38.56-51.1,7.73-10.54,43.43-21.48,55.53-32.69,8-7.41,5.72-11.34,6.75-21.79.11-1.21.4-3.74,1.3-4.83,3.38-4.16,35.2-1.51,41.44-1.35,30.91.8,44.19.05,74.79-8.85,4.08-1.19,21.85-4.93,15.85-10.91-2.15-2.15-6.1-.37-8.47.44-1.41.48-3.25,1-4.71,1.41-21.63,6.68-41.5,10.24-65.72,10.24-23.8,0-38.54-3.94-63.12,2.15-17.14,4.25-32.5,12.88-46.05,23.79-7,5.63-26,19.23-23.26,28.85a52.89,52.89,0,0,0,3.43,8.45c6.58,13.35,17.76,28,27.38,39.93,6.79,8.38,18,15.81,18,33,0,12.25-.09,25.49-16.82,25.49-1.54,0-5.45-5.19-6.77-6.5a170.89,170.89,0,0,0-22.29-18.47c-6.48-4.59-13.59-8.74-19.75-13.93a73.13,73.13,0,0,1-10.13-10.24,90.7,90.7,0,0,1-12-21.66c-4.51-11.11-10.17-21.84-14.28-33.13-1.18-3.3-7.07-17.71-7.07-21,0-4.77,3.85-12.77,5.82-16.11,8-13.54,26.23-38.68,36.2-52,3.28-4.35,6.19-8.25,9.4-12.53,1.67-2.23,19-23.11,19-25.42,0-6.74-5.22-5.21-9.78.43-18.87,23.39-36.14,48-53.24,72.69-5.91,8.53-15,22.76-15,32.93,0,8.4,11.65,34.67,15,42.15,6.73,15.12,13,31.32,24.23,43.57,9.25,10.11,23.43,17.87,34.52,26.14,2.93,2.21,5.16,4.34,7.86,6.42,3.42,2.65,12.74,11.1,12.74,15.82,0,14.29-14.78,26.78-28.67,12.86-20.53-19.33-46-40.88-64.75-62.2-15.65-19-35.43-40.88-45.26-63.33-3.26-7.4-7.64-21.32-7.64-31.12,0-11.31,13.41-30.57,20-40.64,5.2-6.88,9.15-9.37,15-15.13,2.76-2.72,10.43-8.32,10.76-12.11a3.69,3.69,0,0,0-3.42-4c-2.64,0-6,3.66-7.53,5.23-5.52,5.55-14.35,13.34-20.45,18.3-14.27,11.63-22.1,19.91-42.08,22.67-16.83,2.31-32.18-.1-48.73-.82-26.35-1.14-52.93-6.18-76.52-16.89-27.29-12.38-54.18-34.36-63.63-63.72-1.39-4.3-8.82-39.2,3.5-39.2Zm-86.67,111.14a23.78,23.78,0,0,0,2,8.67c1.32,2.93,2.38,4,4.38,6.35,9.38,11.16,33.52,8.08,36.15-13.78.71-5.82-3.22-13.1-6.27-16.1l-.54-.48a2,2,0,0,0-.28-.24c-15.28-13.09-35.47-.45-35.47,15.58Zm-249.83,4.59a25.52,25.52,0,0,0,7,16.95c20.2,20,49.29-3.61,39.4-25.63-6-13.28-20.29-18.28-32.48-12.57a17.49,17.49,0,0,0-3.52,2.09c-5.93,4.5-10.41,11.82-10.41,19.16ZM2323.06,1408c0,11.72.87,19.69,7.14,28.54,13.15,18.58,31.23,11.68,43.85,17.34,12.42,5.58,14.27,7.65,28.55,7.65,7.46,0,16.25-6.79,22.36-9.25,21.36-8.65,47.36,5.86,63.61-15.43,4.54-6,3.77-13.15,3.77-20.7,0-5.09-7.51-7.28-10.08-1.92-.94,2-.65,4.32-.62,7,.21,27-34.71,11.82-58.85,20.19-8.45,2.93-13.68,9.38-23.75,9.38-7.44,0-15-4.25-20.39-6.66-17-7.52-29.19.28-40-14-8.63-11.44-4.78-26.14-5.17-27.43-1.67-5.42-10.41-5-10.41,5.27Zm13.78,98.9c-13.52,0-21.72-2-34.16-2-15.92,0,9.7,26.81,13.13,30,39.33,37.15,107.42,32.53,154,12.63a176,176,0,0,0,27.77-15c22-16.9,26.91-24.06,1.42-24.06-19.63,0-41-4-58.62-5.1-9.5-.59-11.17-2.63-21.07,2.38-10.48,5.29-9.85,4.34-19.22-.34-12.29-6.14-9.61-4.16-22.42-2a234.26,234.26,0,0,1-40.79,3.56Zm408.9-344.14c-12.47,0-30.64,11.63-40.49,18.16l-11,8.35c11.78,9.67,54.35,6.83,72.91,2,0-10.44.75-21-8.68-26.5-3.8-2.21-7.77-2-12.73-2Zm-57.62,102.49c.64,1.44-.14,28.74-.66,32.47-3.41,25.09-4.37,59.25-14.13,87.34,12,15.31,32.37-14.12,41-33.44,8.06-18.05,11.12-26.39,17.68-47.06l11.16-32.17a229.44,229.44,0,0,1-55.06-7.14Zm-788.74,128.47c0,28.69-21.59,72.83-21.91,87.7l-13.37-11.62c-1.33-1.33-2-1.57-3.34-2.79-12.43-10.84-79.54-71.45-93.94-74.82,30.28-10.25,59.06-26,61.19-27,11.5-5.69,10.07-8.38,16.45-5.76,14.36,5.89,34.68,19.63,47.35,29.14,1.73,1.3,5.68,4.67,7.57,5.17Zm268.18-159.07c-12,13-68.14,33.1-114.41,39.93-27.08,4-45.73,2.9-71.62-5.32-5.15-1.64-14.76-4.27-17.4-8.6a44.91,44.91,0,0,1-2.53-6.12c20.66-11,50-4.31,82.58-1.37,25,2.25,52.22,1.18,76.49-4.75,12.72-3.66,35.54-8.6,46.89-13.77ZM2059,1174c6.41-12.15,12.28-15.82,27.54-15.82,8.77,0,23.59,7.63,27,12.75-2.44,0-3.95.34-6.58.55-13.76,1.17-34.15,2.52-48,2.52Zm87.7-10.21c19.71-4.6,59.79-23.64,80.75-32.41,47.93-20.08,72.82,6.32,38.55,46.69,4,0,12.51,2.07,15.91,3,25.93,6.72,49.56,19.74,70.47,36.09,4.84,3.79,14.75,11,8.08,17.71-5.5,5.51-11.91-1.4-14.64-3.52a18.84,18.84,0,0,1-2.19-1.86c-1.53-1.46-3.17-2.6-4.79-3.89-9.16-7.34-19.53-12.55-29.72-18.21l-8.67-4.07c-9.59-4-30-12-40.07-12-15.38,0-41.27,22.45-54.47,30.57-16.9,10.39-35.55,21.09-49.87,28.24-2.42,1.21-12.22,5.55-13.53,6.9-1.14,1.17-.42,2.61-.4,5.13.18,16.89,3,32.51,4.54,49,4.19,44.44,19.69,111.77,34.77,153.36,7.11,19.6,16.22,37.16,25.93,55.12,14.31,26.4,35.42,51.9,59.64,74.23,63.3,58.34,127.89,93.43,213.41,57.84,36.87-15.35,82.62-56.53,106.21-88.3,5.92-8,21.8-32.63,29.41-46.78,16.46-30.54,33-73,45-115.69,9.87-35.06,16.68-70.35,17.93-99.52l1.34-29.78.2-9a79.57,79.57,0,0,0-8-2.73c-35.78-13.61-62.71-30.65-82.34-64-14.37-3.33-34,.31-47.22,3.12-11.1,2.35-28.72,7.55-38.88,12.62-7.71,3.83-15.36,7.25-22.42,12.24a58.79,58.79,0,0,0-4.75,3.92c-4.78,4.13-13.61,4-13.61-4.44,0-9.06,22.52-19.91,31.61-24a290.85,290.85,0,0,1,32.06-11.77c15.7-4.87,32.67-8.1,50-8.1l10.19.52c-1.28-8.38-3.72-26.62,1.86-36.88,6.55-11,14.63-8.26,21.83-3.14,16.51,11.77,28.21,26.93,47.35,37.29l9.51,4.76a61.06,61.06,0,0,0-6.8-28.37c-51.25-102.49-179.7-209.43-293.89-210.51-68.36-.64-126,50.09-174.59,125.09L2167.23,1114c-5.28,10.55-9.88,21.42-14.6,32.31-1.33,3.1-5.71,14.37-6,17.48Zm65.26,378.81a359.48,359.48,0,0,0,49.18,57.18c64.21,60.79,135.33,94.72,222.48,59,32-13.13,80.92-52.7,101.69-80.84,10.38-14.09,24.73-33.13,32.3-48.25l2.22-3.4c0,15.85-4,46.41-6.63,62.2-14.27,85.9-66.26,182.6-121.38,253.64-12.22,15.74-24.07,32.18-36.2,47.66-4.28,5.45-7.78,8.36-12.08,8-5.42-.5-12.33-7.69-23.28-18.44-17.87-17.53-35.91-35.12-53.25-53.09-26.95-27.91-53.38-58-77-86.9-42.79-57.21-58.09-111.82-75-181.41-1.05-4.3-3.05-10.76-3.05-15.32Zm-131.55-264.09c1.44,11.22,40.19,80.81,46.69,89.44,5.29,7,15.57,20,25.2,20.18l-6.42-30.3c-2.07-10.37-3.87-19.92-5.39-30.81-.74-5.19-1.36-10.58-2.11-16.23-1.88-14.08-3.92-36.16-3.92-50.12-10.07,4-45,17.63-54,17.84ZM2048.63,1246c-29.61-3.91-63.38-13-90.61,1.38-.48-2.05-15-32-18.7-33.34s-5.15,3.08-3.74,6.32c1.22,2.84,2.92,5.89,4.41,8.86,11,21.72,24.53,49.75,30.47,73.53,4.5,18,2.59,39,.09,57.1-3.39,24.43-5.49,42.13-14,65-1.48,4-3,7.5-4.67,11.14-.87,1.93-1.41,3.29-2.39,5.26l-10.71,20.91c-6.92,12.36-11.47,25.56-16.76,38.8-4.56,11.43-12,22.3-25.3,13.13a24.71,24.71,0,0,1-6.11-6.13c-4.81-6.53-5.54-12.59-5.54-21,0-10.66,5.3-24.32,8.11-32.7,3.49-10.49,6.64-20.71,9.81-31.49a122.72,122.72,0,0,0,3.48-16.9c1-7.54.82-16.12,1.33-19.57l1.16-19.24c2.8-24.75,2.86-32.88-8.42-57.18a147.63,147.63,0,0,1-10.75-33.1c-1.81-9.07-3.4-17.7-6-26.69-1.7-5.3-8.86-31.2-10.6-33.25-2.45-2.92-6.51-1.63-6.51,3,0,5,11.18,38.21,13,47.62,1.57,7.9,4.86,17.77,3.34,25.34-9.37,46.65-69.87,73.3-106.69,87-8.23,3.09-23.94,8.75-33.08,8.75-4.91,0-7.65-9.39-7.65-13.25,0-11.28,13.75-23.85,22.81-30,15.7-10.59,40.61-25.47,51.72-41.33,2.2-3.13,2.41-6.77,1.88-11.23-.48-4.16-2.15-7.75-3.56-11.23a39.85,39.85,0,0,0-2.49-4.65c-5.19-9.61-7.23-13.87-16.16-20.55-2.71-2-8.31-4-8.31,1.69,0,4.25,8.58,6,13.6,16,4.51,8.94,8.84,12.66,8.84,24.31,0,7.76-40.58,34.53-49,40.17-9,6-22.82,17.15-25.39,28.15-2.13-.19-2.47-.74-4-1.64-4.77-2.85-29.29-13.92-36-16.58a212.68,212.68,0,0,0-26.46-8.69c-7-1.78-4.21-6.49-10.46-12.5-3.3-3.18-10.49-6.85-14.85-8.61-13.62-5.47-22.14-7.19-36.38-10.52-41-9.59-84.88-21.83-126-28.7-10.82-1.79-21-3-28.85-3,.13-5.33,6.43-31.31,7.76-36.6,3.59-14.44,11.9-34.13,19.55-46.72,26.88-44.25,37.84-52.48,81.51-74.52,27.11-10.51,65.87-10.41,95.13-10.41a683.91,683.91,0,0,1,89.51,5.82c38.94,4.06,95.69,5.62,128.41,14.87,47.24,13.38,90.57,40.69,138.67,49.62,42.14,7.85,108.94,4,151.65-10.21,22.47-7.49,38.63-15.56,59.42-24.19,7.57-3.14,24.12-9.16,37.1-10.12,33.06-2.42,13,30.25-.15,43-19.77,15.18-30.57,24.77-52.73,35.13-21.83,10.18-45.81,17.91-68.21,24.41C2104.6,1245.11,2078.86,1250,2048.63,1246Z"/><path class="cls-5" d="M3379,1303.49c18.73,0,20.88,13.17,23.08,28.92,5.33,38.25,6.08,71.66,13.25,113.7,3.48,20.29,10.8,53,15.88,73.34,4.78,19.16,12.66,45.08,21.46,62.89,9.17,18.58,25.6,35.23,35.57,53.72,17.85,33.12,11.13,127.44,13.11,167.43,2.38,48.57,2.1,92.09,14,139.64,8.38,33.53,24.37,87.9,28.83,120.57s3.44,38,11.45,70.13c7.87,31.67,2.88,57-10.41,86.36-9.4,20.77-38.78,61.53-56.36,75.18l-13.57,10.37c-20.53,13.94-49.27,28.44-72.75,35.35-28.15,8.28-57.54,7.75-86.58,3.85-32-4.28-64.43-5.69-96.23-10.31-10.53-1.54-20.44-2.89-30.34-4.86-14.93-3-39.59-10.75-53.56-17.8-18.25-9.23-45.73-25.23-60.53-36.35-28.78-24-49-43.53-71.94-71.44-6.19-7.52-12.15-15.39-18.59-22.61-24.68-30.92-46.94-60.08-60.9-97.37-19.45-52-15.44-90.8-15.44-145.44,0-16.17,1.27-30.35,2-46.4,1-19.7,5.94-53.6,9.82-71.76,5.5-25.68,13.49-50.92,21.73-75.65,1.61-4.78,8.23-20.29,8.23-24.91,0-2.1-2.9-3.28-4.62-2.63-4.43,1.66-11.34,25.27-13,30.34-1.49,4.48-2.87,8.94-4.2,13.14-2.79,8.79-5.28,17.25-7.83,26.33-2.47,8.79-5,17.94-7.23,27.45-4.33,18.92-7.2,38.73-9.4,59.42-1,10-1.16,21.91-2.49,31.66l-1.15,33.52c0,57.82-3.93,95,16.79,148.76,14.42,37.4,34.44,60.74,57.65,93.92,1.47,1.92,10.73,12.1,11.48,14s-2.45,19.09-3,22c-1.48,7.35-2.92,13.77-4.68,20.81-3.39,13.53-7.24,26.14-11.87,39.12a79.63,79.63,0,0,1-8.21,17.27q-524.91,0-1049.79,1.53l-5.75-15.66c-1.1-2.81-1.9-5-3-7.71-10.92-27.13-25.71-68.81-41.83-92.79l-2-3.65c6.75,0,12.5-2.62,16.81-5.12a60.21,60.21,0,0,0,12.64-9.8c24.21-24.41,39.44-52.5,46.66-86.42,8.1-38.09,12.67-91.26,12.62-131.66,0-7-.06-14.4,0-21.41,0-5-.1-8.17-4.59-8.17s-3.59,22.74-3.56,28c.18,33.79-4.16,97.43-11.85,129.93-5.09,21.48-13,42.23-23.94,58.62-9.36,14-27.9,38.84-46.81,38.84-8,0-7.17-4.07-10.7-4.07-2.81,0-7.6,5.84-9.77,7.57-70.81,57.12-125.08,95.58-215.45,131.25-12.55,5-24.63,10-37.67,14.32s-25.34,7.93-37,10.75c-67.94,16.42-166.14,14.2-231.84-8.6-27.55-9.57-51.64-23.48-65.39-43.38-20.77-30-26.08-86.82-27.37-121.16-4.37-116,5.29-223.71,30.4-337.39,1.62-7.32,3.19-14.5,4.65-21.51,5.42-26,11.71-51.92,17.58-77.76,4-17.48,8.31-33.77,12.94-50.79,1.16-4.22,2.06-8.26,3.49-12.33,8.88-25.49,17.43-41.37,32.91-62.43,2.24-3.08,4.38-6,6.38-9.41,15.52-26.21,33-80.64,45.09-114l7.9-23.71c8.44-25.37,13.84-51.26,17.37-78,2.54-19.2,3.9-38.11,6.58-57.16,1.12-8.09,1.22-17.53,9.4-22.22,13-7.45,37.37-5.71,58.72-2.34,40.75,6.43,83.57,18.06,123.9,27.71,15,3.57,30.87,6.09,44.26,13.86,4.94,2.86,9.85,6.51,9.85,13.86a26.91,26.91,0,0,1-1.17,8.54c-2.36,7.15-13.62,20.46-18,29.46-1.13,2.27-2,3.43-3.07,5.59-4,7.73-7,15.88-10.17,24-10,25.4-15.38,56-18.81,83.67-1.22,9.82-2.87,21.22-3,31.2-.07,7.52-1.33,16.74-1.55,24.44-1.4,46.55,6.63,103.66,6.63,153.49,0,29.29,2.42,57.34,1.5,86.26-.56,17.43-3,37.46-3,54.45,0,12.85,3.11,23,6.54,32.21,7.28,19.53,15.72,38.12,19.77,58.76,1,5.47,2.32,11,3.12,16.25,5.74,37.72,5.09,49-3.2,86.74l-10.74,47.92c-.75,3.35-4.84,14.58,1.33,14.58,4.61,0,5.26-7.39,6-10.84,1-4.94,2.23-9.27,3.24-14.1,1.91-9.24,4.43-18.36,6.29-27.87s4.31-18.58,5.9-28.27c7.1-43.27-.23-78.89-14.08-120-1.35-4-3.42-7.82-4.27-11.53,7.3,0,29.13,9.61,36.18,12.75,62.79,31,91.33,65.73,113.78,133,.76,2.27,1,5.29,3.23,6.51,3,1.66,5.37-.74,5.37-3.9,0-5.05-2.85-10.73-4.67-15.22-29.79-73.61-54.72-100.61-126-132.48-8.65-3.48-21.76-8.31-31.47-8.31-.53-6.34-7.33-20.47-8.61-32.21-.9-8.21,2.5-46.62,2.89-58.68.4-12.32,1.1-25.66,2.25-26.77,5.25-5.07,10.16-10.63,15-16.07,6.34-7.53,11.66-15.3,18.11-22.68a429.61,429.61,0,0,0,26.61-35.08l23.4-38.28c9.48-17.58,15.56-37,31.59-50.49,11.44-9.61,25.92-16.12,40.58-20.61,31.25-9.57,48.76-18.88,68.6-44.59,8-10.39,34.4-25.44,46.18-25.71.48,2,1.48,3,2.66,4.48,4.43,5.34,10.56,10,17.69,11.43,4.46.9,13.2-2.34,16-5,8.94-8.7,12.62-21.73,17.2-33.3.65-1.65,1.89-3.78,2-5.59,16.82,0,45.36-5.76,61.25-10.64,3-.91,6.4-1.85,9.26-3,2-.77,7.31-3.06,9-3.21.11,5.23,1.79,11.47,2.77,16.62,70,278.25-116.28,355.9,29.9,645.28,7.12-105.87,205.29-114.11,231.9-373.36.48-2.47,1.37-5.74,1.58-8.12l8.77,11.1c20.76,25.31,45.73,53.2,69.53,77.58,17.22,17.66,37.88,35.35,54.79,53.38,13,13.87,20.19,19.39,26.78,19.37,5,0,9.83-3.72,17.45-12.59,12.45-14.5,24-30.55,35.53-45.88l23-30.77c1.67-2.51,9.2-12.47,9.9-15.09,1,.72,6.21,10.77,7.11,12.27,7.2,12,15.1,23.59,22.87,35.26,117.87,176.79,153,123.72,193.09,309.06,150.11-268.26-16.71-542.91,29.66-709,2.39-18.13,12.89-61.48,12.89-73.78,8.29,15.61,10.48,38,29.19,55.44,3.35,3.13,8.6,5.92,12.64,8.27,31.64,18.34,61,37.91,92.09,56.26l48.78,29.25c24.12,14.47,45.52,24,70.2,39.56,29.6,18.62,64.81,40.28,87.81,62.44,13.89,13.35,18.56,21.41,25.15,38.58,10.32,26.93-.13,88.33-2.85,123.68-.59,19.62-4.86,43.06-10.08,61.82-3.36,12-8.22,22.74-13.71,33.69a310.87,310.87,0,0,0-14.5,33.43c-10.79,29.94-18.81,47-18.81,82.65A200.85,200.85,0,0,0,3103,2025c1,8.06,2.12,16.19,3.53,23.5,2.16,11.17,4.28,21.35,8,31.79,1.19,3.35,2,7.84,6.45,7.84,1.33,0,3.06-2.26,3.06-3.06,0-3.32-4.5-14.91-5.52-18.95-1.66-6.74-3.12-13.48-4.31-20.67-1.15-7-2.07-14-3.13-21.86-6.53-47.87,6.1-80.24,24.54-123.22,2.5-5.87,5.5-10.79,7.86-16.62,1.11-2.74,2.44-4.92,3.72-8a240.77,240.77,0,0,0,9.19-25.47c6.16-21.19,8.09-42.5,10.14-64.3,4.07-43.21,8.5-83.07,8.48-128.15,0-34.39,19.38-65.87,19.38-116.76,0-45.44-1.32-92-9-136.78-1.49-8.62-3.29-16.22-4.94-24.62l-6.16-28c-3.05-13.89-5.13-15.73,10.44-21.74,22.25-8.57,68.25-13.53,87.65-15.76C3305.43,1311.05,3348.31,1303.49,3379,1303.49Z"/><path class="cls-3" d="M2424.64,2478.71a5.5,5.5,0,0,1-1.27,3.67,11,11,0,0,1-3.79,2.71,32.27,32.27,0,0,1-8.32,2.6,57.46,57.46,0,0,1-10.73,1,45.85,45.85,0,0,1-19.82-4.11,30,30,0,0,1-13.43-12.53q-4.83-8.45-4.83-21.46c0-8.6,1.67-15.71,5-21.38a32.1,32.1,0,0,1,13.31-12.72,39.85,39.85,0,0,1,18.21-4.21,45.15,45.15,0,0,1,12,1.44,24.56,24.56,0,0,1,8.07,3.6c1.94,1.46,2.9,2.94,2.9,4.46a4.55,4.55,0,0,1-1,2.84,6,6,0,0,1-2.29,1.87,45.42,45.42,0,0,0-7.72-4,29.8,29.8,0,0,0-11.45-1.88,27.84,27.84,0,0,0-13.73,3.39,23.79,23.79,0,0,0-9.7,10.05q-3.57,6.69-3.56,16.57,0,10.37,3.67,16.94a22.87,22.87,0,0,0,10.07,9.7,32.06,32.06,0,0,0,14.34,3.13,44.69,44.69,0,0,0,8.2-.72,24,24,0,0,0,6-1.81v-22.17h-18.21a9.08,9.08,0,0,1-.72-1.64,6.6,6.6,0,0,1-.37-2.23,4.79,4.79,0,0,1,1-3.19,3.45,3.45,0,0,1,2.77-1.13h20.13a5.22,5.22,0,0,1,3.67,1.38,4.72,4.72,0,0,1,1.51,3.67v26.16Zm-181-25.91c6.41,0,11.4-1.34,14.93-4s5.31-6.77,5.31-12.24-1.71-9.46-5.13-12-8.29-3.8-14.64-3.8q-3.26,0-6.44.3t-5.72.77v31Zm930.43-3.14q0,15.06-7.23,22.84t-21.33,7.78c-2.33,0-4.61-.08-6.81-.24a35.42,35.42,0,0,1-6.2-1v-57.35a44.48,44.48,0,0,1,5.29-.73c1.94-.16,4.14-.24,6.64-.24a36.42,36.42,0,0,1,14.87,3A24,24,0,0,1,3170,2433q4,6.3,4,16.68Zm-492.68.85q0-14.34-6.8-22.12t-18.14-7.78q-11.21,0-18,7.78t-6.8,22.12q0,14.34,6.75,22.1t18.08,7.78q11.45,0,18.18-7.78t6.76-22.1Zm241.88,0q0-14.34-6.82-22.12t-18.12-7.78q-11.22,0-18,7.78t-6.8,22.12q0,14.34,6.75,22.1t18.08,7.78c7.62,0,13.7-2.58,18.19-7.78s6.75-12.54,6.75-22.1Zm-110.59-6.27v3h31.21a9.21,9.21,0,0,1,.73,1.63,6.91,6.91,0,0,1,.35,2.23,5.21,5.21,0,0,1-1,3.19,3.25,3.25,0,0,1-2.78,1.26h-28.55V2487c-.4.08-1,.23-1.88.44a11.66,11.66,0,0,1-2.58.29,6.42,6.42,0,0,1-4-1.08,3.87,3.87,0,0,1-1.39-3.26v-64.23a5,5,0,0,1,5.3-5.3h40a5.91,5.91,0,0,1,.72,1.56,7,7,0,0,1,.36,2.3,5.13,5.13,0,0,1-1,3.19,3.29,3.29,0,0,1-2.78,1.27h-32.9v22Zm171.06,44.48a33,33,0,0,1-15.43-3.33,22.57,22.57,0,0,1-9.7-9.39,29.06,29.06,0,0,1-3.33-14.17v-47.71a12,12,0,0,1,1.88-.55,11.66,11.66,0,0,1,2.71-.3,6.1,6.1,0,0,1,3.91,1,4.16,4.16,0,0,1,1.27,3.44V2461q0,9.64,5.36,14.53a20.62,20.62,0,0,0,26.64,0q5.36-4.87,5.36-14.53v-46.86a11.44,11.44,0,0,1,1.87-.55,11.72,11.72,0,0,1,2.71-.3,6.4,6.4,0,0,1,4,1,4.09,4.09,0,0,1,1.31,3.44v44.1a29.17,29.17,0,0,1-3.3,14.17,22.68,22.68,0,0,1-9.7,9.39,33.35,33.35,0,0,1-15.54,3.33Zm63.13-65.09c.21,2,.4,4.19.57,6.62.24,3.39.43,6.85.55,10.43s.17,7,.17,10.18v36a15.88,15.88,0,0,1-1.86.55,11.84,11.84,0,0,1-2.6.29,6.45,6.45,0,0,1-4-1,3.92,3.92,0,0,1-1.32-3.32v-68.08a7,7,0,0,1,2.71-1.57,11.58,11.58,0,0,1,3.79-.61,10,10,0,0,1,5,1.15,10.33,10.33,0,0,1,3.71,4.16l23,38.56c1.28,2.18,2.63,4.57,4,7.18s2.72,5.1,3.92,7.46,2.18,4.33,2.9,5.85l.48-.12c-.66-6.05-1-12.23-1.16-18.5q-.17-10.53-.17-20.43v-24.33a19,19,0,0,1,1.92-.55,11.19,11.19,0,0,1,2.67-.3,6.44,6.44,0,0,1,4,1,3.94,3.94,0,0,1,1.31,3.32v68.2a10.1,10.1,0,0,1-2.77,1.45,11.05,11.05,0,0,1-3.73.61,10,10,0,0,1-4.94-1.15,10.25,10.25,0,0,1-3.73-4.17L3058.36,2444l-4-7.17q-2.17-3.91-4.09-7.47c-1.3-2.38-2.3-4.32-3-5.84l-.46.11Zm-497,0c.23,2,.42,4.19.59,6.62.24,3.39.42,6.85.55,10.43s.17,7,.17,10.18v36a15.88,15.88,0,0,1-1.86.55,11.84,11.84,0,0,1-2.6.29,6.45,6.45,0,0,1-4-1,3.93,3.93,0,0,1-1.33-3.32v-68.08a7,7,0,0,1,2.72-1.57,11.54,11.54,0,0,1,3.79-.61,9.94,9.94,0,0,1,4.94,1.15,10.36,10.36,0,0,1,3.73,4.16l23,38.56q1.92,3.27,4,7.18c1.41,2.6,2.72,5.1,3.91,7.46s2.17,4.33,2.89,5.85l.48-.12c-.64-6.05-1-12.23-1.14-18.5q-.16-10.53-.17-20.43v-24.33a19,19,0,0,1,1.92-.55,11,11,0,0,1,2.65-.3,6.38,6.38,0,0,1,4,1,3.94,3.94,0,0,1,1.33,3.32v68.2a10.25,10.25,0,0,1-2.77,1.45,11.15,11.15,0,0,1-3.74.61,10,10,0,0,1-4.94-1.15,10.33,10.33,0,0,1-3.74-4.17L2561.35,2444l-4-7.17c-1.45-2.61-2.83-5.1-4.11-7.47s-2.28-4.32-3-5.84l-.46.11Zm186.71-1.44v64.71a16.81,16.81,0,0,1-1.87.55,11.75,11.75,0,0,1-2.59.29,6.2,6.2,0,0,1-4-1.08,4.11,4.11,0,0,1-1.32-3.38v-61.09h-22.55a9.16,9.16,0,0,1-.72-1.69,7.22,7.22,0,0,1-.35-2.29,4.8,4.8,0,0,1,1-3.19,3.42,3.42,0,0,1,2.78-1.15H2759a5.91,5.91,0,0,1,.72,1.56,7.29,7.29,0,0,1,.37,2.3,5.13,5.13,0,0,1-1,3.19,3.27,3.27,0,0,1-2.78,1.27Zm-278.28,56.75h36.15a5.89,5.89,0,0,1,.73,1.51,7.29,7.29,0,0,1,.37,2.35,4.88,4.88,0,0,1-1,3.14,3.35,3.35,0,0,1-2.77,1.2h-38a5.08,5.08,0,0,1-3.84-1.5,5.29,5.29,0,0,1-1.45-3.81v-62.66a5,5,0,0,1,5.29-5.3h40a5.91,5.91,0,0,1,.72,1.56,7.28,7.28,0,0,1,.35,2.3,5.13,5.13,0,0,1-1,3.19,3.24,3.24,0,0,1-2.77,1.27h-32.9v23.25H2490a5.55,5.55,0,0,1,.72,1.57,6.93,6.93,0,0,1,.36,2.3,4.84,4.84,0,0,1-1,3.12,3.33,3.33,0,0,1-2.78,1.2h-29.16v25.31ZM3184,2449.66q0-12.42-5-20.61a31.69,31.69,0,0,0-13.85-12.35,48.32,48.32,0,0,0-20.68-4.15c-3.13,0-6.27.11-9.4.35a36.76,36.76,0,0,0-8.43,1.57,7,7,0,0,0-2.95,1.63,3.92,3.92,0,0,0-1,3V2481c0,2.65,1.68,4.49,5.07,5.53a40.49,40.49,0,0,0,9.2,1.64c3.26.19,6.13.28,8.63.28q11.7,0,20.31-4.19a30.28,30.28,0,0,0,13.37-12.85q4.77-8.62,4.77-21.75Zm-250.8.85q0,12.52-4.59,21a31,31,0,0,1-12.48,12.83,38.84,38.84,0,0,1-35.72,0,31.1,31.1,0,0,1-12.54-12.83q-4.56-8.51-4.57-21c0-8.36,1.55-15.37,4.7-21a31.73,31.73,0,0,1,12.59-12.84,38.4,38.4,0,0,1,35.43,0,31.34,31.34,0,0,1,12.53,12.84q4.64,8.49,4.65,21Zm-241.89,0q0,12.52-4.58,21a31,31,0,0,1-12.46,12.83,38.86,38.86,0,0,1-35.73,0,30.94,30.94,0,0,1-12.55-12.83q-4.58-8.51-4.57-21t4.7-21a31.66,31.66,0,0,1,12.59-12.84,38.4,38.4,0,0,1,35.43,0,31.2,31.2,0,0,1,12.52,12.84q4.65,8.49,4.65,21Zm-91.91,24.7v0Zm-377.3-18.93v-37.11a4,4,0,0,1,1-3,7.07,7.07,0,0,1,3-1.62,42.3,42.3,0,0,1,8.5-1.57c3.34-.33,6.56-.48,9.7-.48q15.3,0,22.35,6.45t7.05,17.41a25.6,25.6,0,0,1-3.19,13,21.21,21.21,0,0,1-9.7,8.57c-4.35,2-9.88,3-16.63,3H2232v25.92c-.48.16-1.12.34-1.92.55a11.57,11.57,0,0,1-2.65.29,6.18,6.18,0,0,1-4-1.08,4.11,4.11,0,0,1-1.33-3.38v-27Zm80.52,3.26h27.07q-2.23-6.81-4.65-13.73c-1.72-5-3.34-9.61-4.81-13.86s-2.72-7.76-3.68-10.49h-.49c-1.2,3.37-2.64,7.4-4.27,12.05s-3.33,9.46-5.07,14.4c-1.43,4.12-2.81,8-4.1,11.63Zm29.61,8.08H2299.9l-.43,1.32c-.72,2.18-1.49,4.44-2.29,6.81s-1.58,4.57-2.3,6.63-1.28,3.72-1.68,5a9.87,9.87,0,0,1-1.75.55,12.73,12.73,0,0,1-2.23.17,5.87,5.87,0,0,1-3.43-1,3.69,3.69,0,0,1-1.51-3.32,7.39,7.39,0,0,1,.35-2.23c.24-.75.53-1.57.86-2.47q1.44-4.09,3.55-10c1.4-3.94,3-8.24,4.64-12.89s3.45-9.44,5.31-14.34,3.64-9.69,5.42-14.34,3.41-8.91,4.94-12.78a14.78,14.78,0,0,1,2.89-1,16.37,16.37,0,0,1,4-.48,14.94,14.94,0,0,1,4.63.72,4.06,4.06,0,0,1,2.84,2.4q2.88,7,6.21,15.85t6.68,18.45q3.38,9.57,6.45,18.62c2,6,3.88,11.48,5.49,16.39a6.44,6.44,0,0,1-2.23,1.75,7.3,7.3,0,0,1-3.08.65,5.22,5.22,0,0,1-3.5-1,7.8,7.8,0,0,1-2.05-3.43Z"/><path class="cls-3" d="M620.41,901H530.12V1057.1H314.72V901H21.93L0,747.54,264.42,256.13h265.7V726.91h99.33l-9,174.12ZM321.18,726.91V529.57h-7.75L207.67,726.91ZM1055,662.42V643.06q0-126.39-7.1-147.67A282.84,282.84,0,0,0,1033,458.63q-14.19-25.8-50.31-25.81t-49,25.81Q918.23,492.16,916.94,527q-2.57,64.47-2.58,116.07v19.36q0,140.6,7.08,163.16t14.84,38Q949.18,892,991.75,892t52.88-48.35q10.32-48.39,10.32-181.23ZM1250.36,478q11,70.93,11,178t-11,178q-11,70.92-40.63,127.68Q1151.68,1070,982.72,1070q-166.4,0-224.43-108.34Q728.62,904.9,717,833.31T705.41,656q0-216.71,57.4-314.74t219.91-98q170.25,0,227,107Q1239.39,407,1250.36,478ZM1973.18,901h-90.3V1057.1h-215.4V901H1374.69l-21.93-153.49,264.42-491.41h265.7V726.91h99.32l-9,174.12ZM1673.94,726.91V529.57h-7.75L1560.44,726.91Z"/><path class="cls-3" d="M835.48,183.22q19.08,0,33.81-7.82a54.15,54.15,0,0,0,23-23.54q8.26-15.77,8.25-39.46,0-24.54-9.11-40a56.07,56.07,0,0,0-24.56-22.81,79.13,79.13,0,0,0-34.53-7.38,78,78,0,0,0-24.71,3.62A110.3,110.3,0,0,0,789,53.75q-6.35,3.75-8.37,7.23a18.24,18.24,0,0,0-2,9.24V222.8q0,5.49,3.17,8.08t9.24,2.6a27.31,27.31,0,0,0,6.37-.7,40.36,40.36,0,0,0,4.33-1.32V175.18a64.59,64.59,0,0,0,10.56,4.41,73.17,73.17,0,0,0,23.25,3.63ZM570.7,91.6q0-34.38-16.33-53T510.88,19.94q-26.86,0-43.2,18.64t-16.33,53q0,34.41,16.18,53t43.35,18.64q27.47,0,43.63-18.64t16.19-53ZM684.17,61.26q-19.36,0-30.78,13.72T642,112.71q0,24.26,11.13,37.85t31.07,13.57q19.64,0,30.76-13.71t11.13-37.71q0-24-11.13-37.73T684.17,61.26ZM594.69,91.6q0,30.06-11,50.42t-29.91,30.79q-18.91,10.4-42.91,10.41-23.69,0-42.77-10.41t-30-30.79q-11-20.37-11-50.42t11.28-50.43q11.26-20.37,30.18-30.76T510.88,0q23.7,0,42.62,10.41t30.06,30.76q11.13,20.38,11.13,50.43Zm155.06,21.11q0,21.36-8.08,37.27a58.65,58.65,0,0,1-22.83,24.56q-14.73,8.66-34.67,8.68t-34.84-8.68a58.44,58.44,0,0,1-23-24.56q-8.1-15.9-8.09-37.27,0-21.67,8.23-37.44a59.66,59.66,0,0,1,23.13-24.41q14.86-8.65,34.53-8.67t34.39,8.67a59.92,59.92,0,0,1,23,24.41q8.24,15.77,8.23,37.44Zm367.64,54.61a16.55,16.55,0,0,1,4.19-11.56q4.18-4.63,11.71-4.63t11.54,4.63a16.84,16.84,0,0,1,4.07,11.56,16.45,16.45,0,0,1-4.07,11.26q-4,4.63-11.54,4.64t-11.71-4.64a16.17,16.17,0,0,1-4.19-11.26Zm-40.06,0a16.55,16.55,0,0,1,4.18-11.56q4.18-4.63,11.72-4.63t11.54,4.63a16.84,16.84,0,0,1,4.06,11.56,16.44,16.44,0,0,1-4.06,11.26q-4,4.63-11.54,4.64t-11.72-4.64a16.16,16.16,0,0,1-4.18-11.26Zm-40.07,0a16.55,16.55,0,0,1,4.19-11.56q4.18-4.63,11.71-4.63t11.55,4.63a16.84,16.84,0,0,1,4.06,11.56,16.44,16.44,0,0,1-4.06,11.26q-4.05,4.63-11.55,4.64t-11.71-4.64a16.17,16.17,0,0,1-4.19-11.26Zm-13.78-23.42q0,18.51-13.56,28.91t-39.31,10.41q-21.95,0-35.83-6.8T920.9,161.53a13.51,13.51,0,0,1,1.9-6.79,13.73,13.73,0,0,1,5.63-5.34,106.91,106.91,0,0,0,18.2,10.11,57.75,57.75,0,0,0,23.69,4.62q30.07,0,30.06-20.23,0-8.37-5.06-13.71c-3.36-3.58-8.34-6.13-14.88-7.67l-24-6.35q-17.62-4.35-25.72-13.44t-8.09-22.68q0-15.31,12.41-26.59t37.86-11.27a90.62,90.62,0,0,1,23.7,2.75q10.11,2.75,15.75,7.22t5.63,9.69a11.94,11.94,0,0,1-1.88,6.64,11.57,11.57,0,0,1-5,4.33,92.51,92.51,0,0,0-8.82-5,61.64,61.64,0,0,0-12.57-4.63,63.11,63.11,0,0,0-15.88-1.88q-12.74,0-20.53,4.92t-7.8,13.87A15.71,15.71,0,0,0,950,91.17c3,3.17,7.76,5.54,14.3,7.09l19.94,4.9q19.65,4.62,29.48,14.6t9.81,26.14ZM801.67,154.46V69.64a89.57,89.57,0,0,1,13-5.77,52.33,52.33,0,0,1,17.62-2.61,50.64,50.64,0,0,1,22.11,4.92q10.25,4.91,16.47,16t6.2,30.18q0,27.19-12.27,39.46T832.3,164.13q-12.43,0-21.23-4.19Z"/></g></g></svg>