<svg width="158" height="35" viewBox="0 0 158 35" fill="none" xmlns="http://www.w3.org/2000/svg">
<path d="M0 7.57725L26.8 7.63925L16.1047 24.0772H24.9573C25.2852 24.0785 25.6083 23.9977 25.8969 23.8421C26.1856 23.6865 26.4307 23.4612 26.61 23.1866L34.7827 10.5333C34.9339 10.3009 35.0319 10.038 35.0695 9.76329C35.1071 9.4886 35.0833 9.20901 35 8.94458L32.636 1.51192C32.5076 1.11881 32.2576 0.77669 31.9221 0.534982C31.5865 0.293274 31.1829 0.164495 30.7693 0.167249H7.8C7.52986 0.166484 7.26244 0.221174 7.01428 0.327934C6.76613 0.434694 6.54254 0.591252 6.35733 0.787916L0 7.57725Z" fill="#012C3F"/>
<path d="M35.5333 27.4226L8.73331 27.3607L19.4313 10.9226H10.578C10.2502 10.9215 9.92729 11.0024 9.63875 11.158C9.3502 11.3135 9.10517 11.5388 8.92597 11.8133L0.753308 24.4667C0.602418 24.699 0.504959 24.962 0.467954 25.2366C0.430949 25.5112 0.455319 25.7906 0.539308 26.0547L2.89997 33.488C3.02811 33.8813 3.27802 34.2238 3.61358 34.4657C3.94914 34.7077 4.35295 34.8366 4.76664 34.834H27.7373C28.0072 34.8345 28.2744 34.7797 28.5223 34.673C28.7702 34.5662 28.9936 34.4098 29.1786 34.2133L35.5333 27.4226Z" fill="#6CE607"/>
<path d="M60.4247 32.2853C59.8887 32.2853 59.6207 31.8998 59.6207 31.1287V28.4293H56.8621L58.8621 31.296L57.8447 32.0813L55.3894 28.4293C55.3894 28.172 55.7916 28.0433 56.5961 28.0433H60.4201C60.9592 28.0433 61.229 28.4291 61.2294 29.2007V32.2853H60.4247Z" fill="#6CE607"/>
<path d="M64.0161 29.2007C64.0187 28.4291 64.2883 28.0433 64.8247 28.0433C65.3612 28.0433 65.6294 28.4291 65.6294 29.2007V31.1287C65.6294 31.8998 65.3612 32.2853 64.8247 32.2853H60.3914L60.3867 31.904L64.0161 31.9V29.2007ZM63.3534 33.0613L63.3581 33.832L61.7447 33.828V33.0613H63.3534ZM65.3687 33.0613V33.834L63.7554 33.83V33.0567L65.3687 33.0613Z" fill="#6CE607"/>
<path d="M68.5674 32.2853H67.7627C67.2267 32.2853 66.9587 31.8998 66.9587 31.1287L66.9634 26.8867C66.9599 26.1156 67.2265 25.73 67.7634 25.73C68.3003 25.73 68.5685 26.1156 68.5681 26.8867L68.5674 32.2853Z" fill="#6CE607"/>
<path d="M79.26 31.9007V29.2007C79.26 28.4291 79.5297 28.0433 80.0693 28.0433H81.4886C82.2926 28.0433 82.8555 28.2989 83.1773 28.81L85.0986 31.9007C85.0986 32.1571 84.6986 32.2871 83.8986 32.2907H68.1506V31.9007H79.26ZM80.8686 31.9007H83.6266L81.1953 28.43H80.8666L80.8686 31.9007Z" fill="#6CE607"/>
<path d="M86.7333 34.2133L86.738 29.2007C86.7349 28.4291 87.0015 28.0433 87.538 28.0433C88.0744 28.0433 88.3427 28.4291 88.3427 29.2007V33.4373C88.3391 34.212 88.0709 34.5991 87.538 34.5987H86.138C86.0047 34.5987 85.938 34.532 85.938 34.404C85.938 34.276 86.0047 34.2133 86.138 34.2133H86.7333Z" fill="#6CE607"/>
<path d="M87.9226 32.2853V31.9007H92.7659V29.2007C92.7659 28.4291 93.0339 28.0433 93.5699 28.0433C94.1059 28.0433 94.3726 28.4291 94.3699 29.2007V31.9007H95.5813V29.2007C95.5813 28.4291 95.8493 28.0433 96.3853 28.0433C96.9213 28.0433 97.1895 28.4291 97.1899 29.2007V31.9007H98.3899V29.2007C98.3899 28.4291 98.6582 28.0433 99.1946 28.0433C99.7311 28.0433 99.9977 28.4291 99.9946 29.2007L99.9993 31.1287C99.9993 31.8998 99.7313 32.2853 99.1953 32.2853H87.9226Z" fill="#6CE607"/>
<path d="M45.2207 20.892L57.2534 7.19734H45.72V3.44467H63.2487V6.71867L51.2994 20.4127H63.4574V24.1673H45.2207V20.892Z" fill="#012C3F"/>
<path d="M64.04 18.056C64.04 16.7147 64.4356 15.5369 65.2267 14.5227C66.0178 13.5085 67.1212 12.726 68.5367 12.1753C69.9523 11.6233 71.576 11.3473 73.408 11.3473C74.3413 11.3489 75.2734 11.4158 76.1974 11.5473C77.1405 11.6807 77.9594 11.8936 78.654 12.186V11.0753C78.654 9.76957 78.2447 8.76335 77.426 8.05668C76.6074 7.35001 75.3929 6.99713 73.7827 6.99801C72.6181 6.99321 71.4619 7.1964 70.3687 7.59801C69.286 7.99801 68.148 8.58357 66.9547 9.35468L65.164 5.84135C66.5441 4.9654 68.0363 4.28008 69.6 3.80401C71.1476 3.3468 72.7537 3.11816 74.3674 3.12535C77.4758 3.12535 79.898 3.86024 81.634 5.33001C83.37 6.79979 84.2367 8.89868 84.234 11.6267V18.2C84.234 18.7511 84.338 19.1447 84.546 19.3807C84.7547 19.6173 85.094 19.7613 85.5667 19.814V24.1673C85.0667 24.2473 84.6156 24.314 84.2134 24.3673C83.8754 24.4153 83.5347 24.4418 83.1934 24.4467C82.0823 24.4467 81.2425 24.2071 80.674 23.728C80.1247 23.2837 79.7488 22.6605 79.612 21.9674L79.4867 20.89C78.5399 22.0635 77.3268 22.9942 75.948 23.6047C74.589 24.231 73.1111 24.5577 71.6147 24.5627C70.1712 24.5627 68.8736 24.28 67.722 23.7147C66.5705 23.1493 65.6683 22.3736 65.0154 21.3873C64.3652 20.4029 64.04 19.2925 64.04 18.056ZM77.6134 19.0953C77.8961 18.8122 78.1473 18.4993 78.3627 18.162C78.5565 17.8509 78.6536 17.5653 78.654 17.3053V15.2413C77.9533 14.9719 77.2285 14.7699 76.4894 14.638C75.7618 14.5005 75.0232 14.4288 74.2827 14.424C72.8387 14.424 71.652 14.716 70.7227 15.3C69.7934 15.884 69.3285 16.656 69.328 17.616C69.3303 18.1436 69.4895 18.6586 69.7854 19.0953C70.0907 19.5625 70.5352 19.9387 71.1187 20.224C71.7023 20.5093 72.3963 20.652 73.2007 20.652C74.0398 20.651 74.8718 20.4995 75.6574 20.2047C76.4636 19.9065 77.1156 19.5367 77.6134 19.0953Z" fill="#012C3F"/>
<path d="M99.9333 7.87666C98.24 7.87666 96.7271 8.18933 95.3946 8.81466C94.0622 9.44 93.1046 10.3382 92.522 11.5093V24.1673H86.9426V3.44466H92.064V7.71666C92.8404 6.27933 93.8257 5.14822 95.02 4.32333C96.2142 3.49844 97.4762 3.04644 98.806 2.96733H99.5133C99.6532 2.965 99.793 2.97842 99.93 3.00733L99.9333 7.87666Z" fill="#012C3F"/>
<path d="M47.3147 32.0133C47.0358 32.0186 46.7597 31.9571 46.5094 31.834C46.2805 31.7221 46.0848 31.5525 45.9414 31.342V31.9527H45.2207V27.258H46.0374V29.258C46.1925 29.0355 46.4008 28.8555 46.6434 28.7342C46.8859 28.613 47.155 28.5545 47.426 28.564C47.6688 28.5597 47.9097 28.6062 48.1334 28.7007C48.3394 28.7893 48.525 28.9193 48.6787 29.0827C48.8294 29.2434 48.948 29.4314 49.028 29.6367C49.11 29.8477 49.1514 30.0723 49.15 30.2987C49.1515 30.5265 49.1047 30.7522 49.0127 30.9607C48.9219 31.1681 48.7894 31.3546 48.6234 31.5087C48.4534 31.6667 48.2556 31.792 48.04 31.878C47.8094 31.9699 47.563 32.0159 47.3147 32.0133ZM47.0994 31.4093C47.4231 31.4135 47.7363 31.2943 47.9754 31.076C48.0825 30.9765 48.1673 30.8554 48.224 30.7207C48.2803 30.5885 48.3094 30.4463 48.3094 30.3027C48.3104 30.1521 48.2812 30.0028 48.2235 29.8637C48.1658 29.7246 48.0808 29.5985 47.9735 29.4928C47.8662 29.3872 47.7389 29.3041 47.5989 29.2485C47.4589 29.193 47.3093 29.166 47.1587 29.1693C46.9999 29.1684 46.8427 29.2018 46.698 29.2673C46.5567 29.3313 46.4274 29.4193 46.316 29.5273C46.2064 29.6326 46.1125 29.7532 46.0374 29.8853V30.7593C46.0678 30.8592 46.1212 30.9505 46.1934 31.026C46.2701 31.1047 46.3576 31.172 46.4534 31.226C46.554 31.2832 46.6613 31.3279 46.7727 31.3593C46.8786 31.3918 46.9886 31.4086 47.0994 31.4093Z" fill="#012C3F"/>
<path d="M49.8833 32.74C49.9573 32.7486 50.0307 32.758 50.102 32.7686C50.1598 32.7781 50.2181 32.7834 50.2767 32.7846C50.355 32.7865 50.4319 32.7632 50.496 32.718C50.5756 32.6504 50.6401 32.5668 50.6853 32.4726C50.7493 32.354 50.8284 32.1822 50.9227 31.9573L49.3267 28.614H50.18L51.368 31.2413L52.422 28.614H53.2093L51.4493 32.7306C51.3922 32.8584 51.3117 32.9744 51.212 33.0726C51.1018 33.1806 50.9704 33.2644 50.826 33.3186C50.6525 33.3819 50.4686 33.4122 50.284 33.408C50.222 33.4079 50.1601 33.4037 50.0987 33.3953C50.032 33.3867 49.962 33.374 49.8833 33.3566V32.74Z" fill="#012C3F"/>
<rect x="112" y="7" width="46" height="21" rx="3" fill="#DC2626"/>
<path d="M121.302 13.228H125.32C126.132 13.228 126.767 13.4567 127.224 13.914C127.691 14.3713 127.924 14.9827 127.924 15.748C127.924 16.112 127.873 16.42 127.77 16.672C127.667 16.924 127.537 17.134 127.378 17.302C127.219 17.4607 127.047 17.582 126.86 17.666C126.673 17.7407 126.501 17.792 126.342 17.82V17.904C126.519 17.9133 126.715 17.96 126.93 18.044C127.154 18.128 127.364 18.2633 127.56 18.45C127.756 18.6273 127.919 18.8607 128.05 19.15C128.19 19.43 128.26 19.7707 128.26 20.172C128.26 20.5733 128.195 20.9467 128.064 21.292C127.943 21.6373 127.77 21.936 127.546 22.188C127.322 22.44 127.056 22.6407 126.748 22.79C126.44 22.93 126.104 23 125.74 23H121.302V13.228ZM122.478 21.964H125.376C125.88 21.964 126.277 21.838 126.566 21.586C126.855 21.3247 127 20.9467 127 20.452V19.976C127 19.4813 126.855 19.108 126.566 18.856C126.277 18.5947 125.88 18.464 125.376 18.464H122.478V21.964ZM122.478 17.456H125.18C125.647 17.456 126.011 17.3393 126.272 17.106C126.533 16.8727 126.664 16.5367 126.664 16.098V15.622C126.664 15.1833 126.533 14.8473 126.272 14.614C126.011 14.3807 125.647 14.264 125.18 14.264H122.478V17.456ZM133.052 23.168C132.558 23.168 132.11 23.0793 131.708 22.902C131.316 22.7247 130.976 22.4727 130.686 22.146C130.406 21.81 130.187 21.4133 130.028 20.956C129.879 20.4893 129.804 19.9667 129.804 19.388C129.804 18.8187 129.879 18.3007 130.028 17.834C130.187 17.3673 130.406 16.9707 130.686 16.644C130.976 16.308 131.316 16.0513 131.708 15.874C132.11 15.6967 132.558 15.608 133.052 15.608C133.538 15.608 133.972 15.6967 134.354 15.874C134.737 16.0513 135.064 16.2987 135.334 16.616C135.605 16.924 135.81 17.2927 135.95 17.722C136.1 18.1513 136.174 18.6227 136.174 19.136V19.668H130.98V20.004C130.98 20.312 131.027 20.6013 131.12 20.872C131.223 21.1333 131.363 21.362 131.54 21.558C131.727 21.754 131.951 21.908 132.212 22.02C132.483 22.132 132.786 22.188 133.122 22.188C133.58 22.188 133.976 22.0807 134.312 21.866C134.658 21.6513 134.924 21.3433 135.11 20.942L135.908 21.516C135.675 22.0107 135.311 22.412 134.816 22.72C134.322 23.0187 133.734 23.168 133.052 23.168ZM133.052 16.546C132.744 16.546 132.464 16.602 132.212 16.714C131.96 16.8167 131.741 16.966 131.554 17.162C131.377 17.358 131.237 17.5913 131.134 17.862C131.032 18.1233 130.98 18.4127 130.98 18.73V18.828H134.97V18.674C134.97 18.03 134.793 17.5167 134.438 17.134C134.093 16.742 133.631 16.546 133.052 16.546ZM139.616 23C139.224 23 138.925 22.8927 138.72 22.678C138.524 22.454 138.426 22.1647 138.426 21.81V16.756H137.236V15.776H137.908C138.151 15.776 138.314 15.7293 138.398 15.636C138.491 15.5333 138.538 15.3607 138.538 15.118V13.774H139.546V15.776H141.128V16.756H139.546V22.02H141.016V23H139.616ZM148.178 23C147.758 23 147.455 22.888 147.268 22.664C147.091 22.44 146.979 22.16 146.932 21.824H146.862C146.704 22.272 146.442 22.608 146.078 22.832C145.714 23.056 145.28 23.168 144.776 23.168C144.011 23.168 143.414 22.972 142.984 22.58C142.564 22.188 142.354 21.656 142.354 20.984C142.354 20.3027 142.602 19.78 143.096 19.416C143.6 19.052 144.38 18.87 145.434 18.87H146.862V18.156C146.862 17.6427 146.722 17.2507 146.442 16.98C146.162 16.7093 145.733 16.574 145.154 16.574C144.716 16.574 144.347 16.672 144.048 16.868C143.759 17.064 143.516 17.3253 143.32 17.652L142.648 17.022C142.844 16.63 143.157 16.2987 143.586 16.028C144.016 15.748 144.557 15.608 145.21 15.608C146.088 15.608 146.769 15.8227 147.254 16.252C147.74 16.6813 147.982 17.2787 147.982 18.044V22.02H148.808V23H148.178ZM144.958 22.216C145.238 22.216 145.495 22.1833 145.728 22.118C145.962 22.0527 146.162 21.9593 146.33 21.838C146.498 21.7167 146.629 21.5767 146.722 21.418C146.816 21.2593 146.862 21.0867 146.862 20.9V19.71H145.378C144.734 19.71 144.263 19.8033 143.964 19.99C143.675 20.1767 143.53 20.4473 143.53 20.802V21.096C143.53 21.4507 143.656 21.726 143.908 21.922C144.17 22.118 144.52 22.216 144.958 22.216Z" fill="white"/>
</svg>
